%TF.GenerationSoftware,KiCad,Pcbnew,9.0.4*%
%TF.CreationDate,2025-09-26T22:16:16-05:00*%
%TF.ProjectId,loongcat40,6c6f6f6e-6763-4617-9434-302e6b696361,rev?*%
%TF.SameCoordinates,Original*%
%TF.FileFunction,Legend,Bot*%
%TF.FilePolarity,Positive*%
%FSLAX46Y46*%
G04 Gerber Fmt 4.6, Leading zero omitted, Abs format (unit mm)*
G04 Created by KiCad (PCBNEW 9.0.4) date 2025-09-26 22:16:16*
%MOMM*%
%LPD*%
G01*
G04 APERTURE LIST*
%ADD10C,0.100000*%
%ADD11C,0.000000*%
G04 APERTURE END LIST*
D10*
X146172306Y-96420038D02*
X146267544Y-96372419D01*
X146267544Y-96372419D02*
X146410401Y-96372419D01*
X146410401Y-96372419D02*
X146553258Y-96420038D01*
X146553258Y-96420038D02*
X146648496Y-96515276D01*
X146648496Y-96515276D02*
X146696115Y-96610514D01*
X146696115Y-96610514D02*
X146743734Y-96800990D01*
X146743734Y-96800990D02*
X146743734Y-96943847D01*
X146743734Y-96943847D02*
X146696115Y-97134323D01*
X146696115Y-97134323D02*
X146648496Y-97229561D01*
X146648496Y-97229561D02*
X146553258Y-97324800D01*
X146553258Y-97324800D02*
X146410401Y-97372419D01*
X146410401Y-97372419D02*
X146315163Y-97372419D01*
X146315163Y-97372419D02*
X146172306Y-97324800D01*
X146172306Y-97324800D02*
X146124687Y-97277180D01*
X146124687Y-97277180D02*
X146124687Y-96943847D01*
X146124687Y-96943847D02*
X146315163Y-96943847D01*
X145696115Y-97372419D02*
X145696115Y-96372419D01*
X145696115Y-96372419D02*
X145124687Y-97372419D01*
X145124687Y-97372419D02*
X145124687Y-96372419D01*
X144648496Y-97372419D02*
X144648496Y-96372419D01*
X144648496Y-96372419D02*
X144410401Y-96372419D01*
X144410401Y-96372419D02*
X144267544Y-96420038D01*
X144267544Y-96420038D02*
X144172306Y-96515276D01*
X144172306Y-96515276D02*
X144124687Y-96610514D01*
X144124687Y-96610514D02*
X144077068Y-96800990D01*
X144077068Y-96800990D02*
X144077068Y-96943847D01*
X144077068Y-96943847D02*
X144124687Y-97134323D01*
X144124687Y-97134323D02*
X144172306Y-97229561D01*
X144172306Y-97229561D02*
X144267544Y-97324800D01*
X144267544Y-97324800D02*
X144410401Y-97372419D01*
X144410401Y-97372419D02*
X144648496Y-97372419D01*
X129672306Y-102920038D02*
X129767544Y-102872419D01*
X129767544Y-102872419D02*
X129910401Y-102872419D01*
X129910401Y-102872419D02*
X130053258Y-102920038D01*
X130053258Y-102920038D02*
X130148496Y-103015276D01*
X130148496Y-103015276D02*
X130196115Y-103110514D01*
X130196115Y-103110514D02*
X130243734Y-103300990D01*
X130243734Y-103300990D02*
X130243734Y-103443847D01*
X130243734Y-103443847D02*
X130196115Y-103634323D01*
X130196115Y-103634323D02*
X130148496Y-103729561D01*
X130148496Y-103729561D02*
X130053258Y-103824800D01*
X130053258Y-103824800D02*
X129910401Y-103872419D01*
X129910401Y-103872419D02*
X129815163Y-103872419D01*
X129815163Y-103872419D02*
X129672306Y-103824800D01*
X129672306Y-103824800D02*
X129624687Y-103777180D01*
X129624687Y-103777180D02*
X129624687Y-103443847D01*
X129624687Y-103443847D02*
X129815163Y-103443847D01*
X129196115Y-103872419D02*
X129196115Y-102872419D01*
X129196115Y-102872419D02*
X128624687Y-103872419D01*
X128624687Y-103872419D02*
X128624687Y-102872419D01*
X128148496Y-103872419D02*
X128148496Y-102872419D01*
X128148496Y-102872419D02*
X127910401Y-102872419D01*
X127910401Y-102872419D02*
X127767544Y-102920038D01*
X127767544Y-102920038D02*
X127672306Y-103015276D01*
X127672306Y-103015276D02*
X127624687Y-103110514D01*
X127624687Y-103110514D02*
X127577068Y-103300990D01*
X127577068Y-103300990D02*
X127577068Y-103443847D01*
X127577068Y-103443847D02*
X127624687Y-103634323D01*
X127624687Y-103634323D02*
X127672306Y-103729561D01*
X127672306Y-103729561D02*
X127767544Y-103824800D01*
X127767544Y-103824800D02*
X127910401Y-103872419D01*
X127910401Y-103872419D02*
X128148496Y-103872419D01*
D11*
G36*
X144961660Y-70851511D02*
G01*
X138209279Y-74750000D01*
X131456889Y-70851509D01*
X131456891Y-67074062D01*
X132591206Y-67074062D01*
X132596336Y-67316133D01*
X132611586Y-67555599D01*
X132636750Y-67792253D01*
X132671619Y-68025887D01*
X132715987Y-68256294D01*
X132769647Y-68483266D01*
X132832390Y-68706596D01*
X132904009Y-68926077D01*
X132984297Y-69141501D01*
X133073047Y-69352660D01*
X133170051Y-69559349D01*
X133275102Y-69761358D01*
X133387992Y-69958481D01*
X133508514Y-70150510D01*
X133636460Y-70337238D01*
X133771624Y-70518457D01*
X133791174Y-70383332D01*
X133814723Y-70249538D01*
X133842208Y-70117137D01*
X133873566Y-69986191D01*
X133908733Y-69856765D01*
X133947648Y-69728922D01*
X133990247Y-69602723D01*
X134036467Y-69478233D01*
X134086245Y-69355513D01*
X134139518Y-69234628D01*
X134196223Y-69115640D01*
X134256297Y-68998612D01*
X134319678Y-68883607D01*
X134386301Y-68770688D01*
X134456105Y-68659918D01*
X134529027Y-68551360D01*
X134440598Y-68480188D01*
X134356378Y-68404223D01*
X134313011Y-68360450D01*
X135887629Y-68360450D01*
X135887668Y-68370351D01*
X135888167Y-68380241D01*
X135889125Y-68390104D01*
X135890543Y-68399922D01*
X135892421Y-68409677D01*
X135894759Y-68419352D01*
X135897557Y-68428930D01*
X135900815Y-68438392D01*
X135904533Y-68447723D01*
X135908710Y-68456903D01*
X135913347Y-68465916D01*
X135918445Y-68474745D01*
X135924002Y-68483371D01*
X135930019Y-68491777D01*
X135936496Y-68499946D01*
X135943432Y-68507861D01*
X135943400Y-68507893D01*
X135943368Y-68507925D01*
X135943335Y-68507958D01*
X135943303Y-68507991D01*
X135949553Y-68514240D01*
X136418347Y-68983032D01*
X135949553Y-69451824D01*
X135943303Y-69458074D01*
X135943432Y-69458203D01*
X135936496Y-69466118D01*
X135930019Y-69474287D01*
X135924002Y-69482694D01*
X135918445Y-69491320D01*
X135913347Y-69500148D01*
X135908710Y-69509161D01*
X135904533Y-69518342D01*
X135900815Y-69527672D01*
X135897557Y-69537135D01*
X135894759Y-69546712D01*
X135892421Y-69556387D01*
X135890543Y-69566142D01*
X135889125Y-69575960D01*
X135888167Y-69585823D01*
X135887668Y-69595713D01*
X135887629Y-69605614D01*
X135888051Y-69615508D01*
X135888932Y-69625376D01*
X135890273Y-69635203D01*
X135892073Y-69644970D01*
X135894334Y-69654660D01*
X135897055Y-69664255D01*
X135900235Y-69673738D01*
X135903875Y-69683092D01*
X135907976Y-69692299D01*
X135912536Y-69701341D01*
X135917556Y-69710202D01*
X135923035Y-69718863D01*
X135928975Y-69727308D01*
X135935374Y-69735518D01*
X135942234Y-69743477D01*
X135949553Y-69751166D01*
X135957243Y-69758485D01*
X135965201Y-69765345D01*
X135973412Y-69771744D01*
X135981856Y-69777684D01*
X135990518Y-69783164D01*
X135999378Y-69788184D01*
X136008421Y-69792744D01*
X136017627Y-69796844D01*
X136026981Y-69800484D01*
X136036464Y-69803664D01*
X136046060Y-69806385D01*
X136055749Y-69808646D01*
X136065516Y-69810446D01*
X136075343Y-69811787D01*
X136085212Y-69812668D01*
X136095105Y-69813089D01*
X136105006Y-69813051D01*
X136114896Y-69812552D01*
X136124759Y-69811594D01*
X136134577Y-69810175D01*
X136144332Y-69808297D01*
X136154007Y-69805959D01*
X136163585Y-69803161D01*
X136173048Y-69799904D01*
X136182378Y-69796186D01*
X136191559Y-69792008D01*
X136200572Y-69787371D01*
X136209401Y-69782274D01*
X136218027Y-69776717D01*
X136226434Y-69770700D01*
X136234603Y-69764223D01*
X136242518Y-69757286D01*
X136242533Y-69757302D01*
X136242549Y-69757318D01*
X136242581Y-69757351D01*
X136242613Y-69757383D01*
X136242646Y-69757416D01*
X136248894Y-69751166D01*
X136717686Y-69282374D01*
X137192731Y-69757416D01*
X137192794Y-69757351D01*
X137192826Y-69757318D01*
X137192858Y-69757286D01*
X137200773Y-69764223D01*
X137208942Y-69770700D01*
X137217348Y-69776717D01*
X137225974Y-69782274D01*
X137234803Y-69787371D01*
X137243816Y-69792008D01*
X137252996Y-69796186D01*
X137262327Y-69799904D01*
X137271789Y-69803161D01*
X137281367Y-69805959D01*
X137291042Y-69808297D01*
X137300797Y-69810175D01*
X137310615Y-69811594D01*
X137320478Y-69812552D01*
X137330368Y-69813051D01*
X137340269Y-69813089D01*
X137350162Y-69812668D01*
X137360031Y-69811787D01*
X137369858Y-69810446D01*
X137379625Y-69808646D01*
X137389314Y-69806385D01*
X137398910Y-69803664D01*
X137408393Y-69800484D01*
X137417747Y-69796844D01*
X137426954Y-69792744D01*
X137435996Y-69788184D01*
X137444857Y-69783164D01*
X137453518Y-69777684D01*
X137461963Y-69771744D01*
X137470173Y-69765345D01*
X137478132Y-69758485D01*
X137485821Y-69751166D01*
X137493141Y-69743477D01*
X137500000Y-69735518D01*
X137506400Y-69727308D01*
X137512340Y-69718863D01*
X137517819Y-69710202D01*
X137522839Y-69701341D01*
X137527400Y-69692299D01*
X137531500Y-69683092D01*
X137535140Y-69673738D01*
X137538321Y-69664255D01*
X137541041Y-69654660D01*
X137543302Y-69644970D01*
X137545103Y-69635203D01*
X137546444Y-69625376D01*
X137547325Y-69615508D01*
X137547746Y-69605614D01*
X137547707Y-69595713D01*
X137547209Y-69585823D01*
X137546250Y-69575960D01*
X137544832Y-69566142D01*
X137542954Y-69556387D01*
X137540616Y-69546712D01*
X137537818Y-69537135D01*
X137534561Y-69527672D01*
X137530843Y-69518342D01*
X137526666Y-69509161D01*
X137522028Y-69500148D01*
X137516931Y-69491320D01*
X137511374Y-69482694D01*
X137505357Y-69474287D01*
X137498880Y-69466118D01*
X137491944Y-69458203D01*
X137492070Y-69458074D01*
X137017029Y-68983032D01*
X137017031Y-68983030D01*
X138614560Y-68983030D01*
X138614822Y-68993643D01*
X138615599Y-69004121D01*
X138616879Y-69014452D01*
X138618651Y-69024623D01*
X138620900Y-69034623D01*
X138623616Y-69044438D01*
X138626786Y-69054056D01*
X138630397Y-69063466D01*
X138634437Y-69072654D01*
X138638894Y-69081609D01*
X138643755Y-69090317D01*
X138649008Y-69098768D01*
X138654641Y-69106947D01*
X138660641Y-69114844D01*
X138666996Y-69122445D01*
X138673694Y-69129739D01*
X138680722Y-69136712D01*
X138688068Y-69143353D01*
X138695720Y-69149650D01*
X138703665Y-69155589D01*
X138711891Y-69161159D01*
X138720386Y-69166347D01*
X138729136Y-69171141D01*
X138738131Y-69175529D01*
X138747357Y-69179498D01*
X138756803Y-69183035D01*
X138766455Y-69186130D01*
X138776302Y-69188768D01*
X138786331Y-69190938D01*
X138796529Y-69192628D01*
X138806886Y-69193824D01*
X138817387Y-69194516D01*
X138817387Y-69194697D01*
X138826226Y-69194697D01*
X139489199Y-69194697D01*
X139489199Y-69857670D01*
X139489199Y-69866507D01*
X139489380Y-69866507D01*
X139490072Y-69877009D01*
X139491269Y-69887365D01*
X139492959Y-69897564D01*
X139495129Y-69907593D01*
X139497767Y-69917440D01*
X139500861Y-69927093D01*
X139504399Y-69936538D01*
X139508368Y-69945764D01*
X139512755Y-69954759D01*
X139517549Y-69963510D01*
X139522738Y-69972004D01*
X139528307Y-69980230D01*
X139534247Y-69988175D01*
X139540543Y-69995827D01*
X139547184Y-70003173D01*
X139554158Y-70010201D01*
X139561451Y-70016899D01*
X139569053Y-70023254D01*
X139576949Y-70029254D01*
X139585129Y-70034887D01*
X139593579Y-70040140D01*
X139602287Y-70045001D01*
X139611242Y-70049458D01*
X139620430Y-70053498D01*
X139629839Y-70057109D01*
X139639458Y-70060279D01*
X139649272Y-70062994D01*
X139659272Y-70065244D01*
X139669443Y-70067015D01*
X139679773Y-70068296D01*
X139690251Y-70069073D01*
X139700863Y-70069335D01*
X139711476Y-70069073D01*
X139721954Y-70068296D01*
X139732285Y-70067015D01*
X139742457Y-70065244D01*
X139752456Y-70062994D01*
X139762271Y-70060279D01*
X139771890Y-70057109D01*
X139781299Y-70053498D01*
X139790487Y-70049458D01*
X139799442Y-70045001D01*
X139808151Y-70040140D01*
X139816601Y-70034887D01*
X139824781Y-70029254D01*
X139832677Y-70023254D01*
X139840279Y-70016899D01*
X139847572Y-70010201D01*
X139854546Y-70003173D01*
X139861187Y-69995827D01*
X139867484Y-69988175D01*
X139873423Y-69980230D01*
X139878993Y-69972004D01*
X139884181Y-69963510D01*
X139888975Y-69954759D01*
X139893363Y-69945764D01*
X139897332Y-69936538D01*
X139900869Y-69927093D01*
X139903964Y-69917440D01*
X139906602Y-69907593D01*
X139908772Y-69897564D01*
X139910462Y-69887365D01*
X139911659Y-69877009D01*
X139912350Y-69866507D01*
X139912530Y-69866507D01*
X139912530Y-69857670D01*
X139912530Y-69194697D01*
X140584342Y-69194697D01*
X140584342Y-69194516D01*
X140594843Y-69193824D01*
X140605199Y-69192628D01*
X140615398Y-69190938D01*
X140625427Y-69188768D01*
X140635274Y-69186130D01*
X140644926Y-69183035D01*
X140654372Y-69179498D01*
X140663598Y-69175529D01*
X140672592Y-69171141D01*
X140681343Y-69166347D01*
X140689838Y-69161159D01*
X140698064Y-69155589D01*
X140706009Y-69149650D01*
X140713661Y-69143353D01*
X140721007Y-69136712D01*
X140728035Y-69129739D01*
X140734733Y-69122445D01*
X140741088Y-69114844D01*
X140747088Y-69106947D01*
X140752721Y-69098768D01*
X140757974Y-69090317D01*
X140762835Y-69081609D01*
X140767292Y-69072654D01*
X140771332Y-69063466D01*
X140774943Y-69054056D01*
X140778113Y-69044438D01*
X140780828Y-69034623D01*
X140783078Y-69024623D01*
X140784849Y-69014452D01*
X140786130Y-69004121D01*
X140786907Y-68993643D01*
X140787169Y-68983030D01*
X140786907Y-68972417D01*
X140786130Y-68961940D01*
X140784849Y-68951609D01*
X140783078Y-68941438D01*
X140780829Y-68931439D01*
X140778113Y-68921624D01*
X140774943Y-68912005D01*
X140771332Y-68902596D01*
X140767292Y-68893408D01*
X140762836Y-68884453D01*
X140757975Y-68875745D01*
X140752721Y-68867294D01*
X140747089Y-68859115D01*
X140741088Y-68851218D01*
X140734733Y-68843617D01*
X140728036Y-68836323D01*
X140721007Y-68829350D01*
X140713661Y-68822709D01*
X140706010Y-68816412D01*
X140698065Y-68810473D01*
X140689839Y-68804903D01*
X140681344Y-68799715D01*
X140672593Y-68794921D01*
X140663599Y-68790533D01*
X140654372Y-68786565D01*
X140644927Y-68783027D01*
X140635275Y-68779933D01*
X140625428Y-68777294D01*
X140615399Y-68775124D01*
X140605200Y-68773435D01*
X140594843Y-68772238D01*
X140584342Y-68771546D01*
X140584342Y-68771365D01*
X139912530Y-68771365D01*
X139912530Y-68108393D01*
X139912530Y-68099553D01*
X139912350Y-68099553D01*
X139911659Y-68089052D01*
X139910462Y-68078695D01*
X139908772Y-68068496D01*
X139906602Y-68058467D01*
X139903964Y-68048621D01*
X139900869Y-68038968D01*
X139897332Y-68029523D01*
X139893363Y-68020297D01*
X139888975Y-68011302D01*
X139884181Y-68002551D01*
X139878993Y-67994057D01*
X139873423Y-67985831D01*
X139867484Y-67977885D01*
X139861187Y-67970234D01*
X139854546Y-67962888D01*
X139847572Y-67955859D01*
X139840279Y-67949161D01*
X139832677Y-67942806D01*
X139824781Y-67936806D01*
X139816601Y-67931173D01*
X139808151Y-67925920D01*
X139799442Y-67921059D01*
X139790487Y-67916602D01*
X139781299Y-67912562D01*
X139771890Y-67908951D01*
X139762271Y-67905781D01*
X139752456Y-67903065D01*
X139742457Y-67900816D01*
X139732285Y-67899044D01*
X139721954Y-67897764D01*
X139711476Y-67896986D01*
X139700863Y-67896725D01*
X139690251Y-67896986D01*
X139679773Y-67897764D01*
X139669443Y-67899044D01*
X139659271Y-67900816D01*
X139649272Y-67903065D01*
X139639457Y-67905781D01*
X139629839Y-67908951D01*
X139620430Y-67912562D01*
X139611242Y-67916602D01*
X139602287Y-67921059D01*
X139593578Y-67925920D01*
X139585128Y-67931173D01*
X139576948Y-67936806D01*
X139569052Y-67942806D01*
X139561450Y-67949161D01*
X139554157Y-67955859D01*
X139547183Y-67962888D01*
X139540542Y-67970234D01*
X139534246Y-67977885D01*
X139528306Y-67985831D01*
X139522736Y-67994057D01*
X139517548Y-68002551D01*
X139512754Y-68011302D01*
X139508366Y-68020297D01*
X139504397Y-68029523D01*
X139500860Y-68038968D01*
X139497765Y-68048621D01*
X139495127Y-68058467D01*
X139492957Y-68068496D01*
X139491267Y-68078695D01*
X139490070Y-68089052D01*
X139489379Y-68099553D01*
X139489199Y-68099553D01*
X139489199Y-68108393D01*
X139489199Y-68360449D01*
X139489199Y-68771367D01*
X138826224Y-68771367D01*
X138825965Y-68771367D01*
X138817387Y-68771365D01*
X138817387Y-68771544D01*
X138806886Y-68772236D01*
X138796529Y-68773433D01*
X138786331Y-68775122D01*
X138776302Y-68777293D01*
X138766455Y-68779931D01*
X138756803Y-68783025D01*
X138747357Y-68786563D01*
X138738131Y-68790532D01*
X138729136Y-68794919D01*
X138720386Y-68799713D01*
X138711891Y-68804901D01*
X138703665Y-68810471D01*
X138695720Y-68816411D01*
X138688068Y-68822707D01*
X138680722Y-68829348D01*
X138673694Y-68836322D01*
X138666996Y-68843615D01*
X138660641Y-68851217D01*
X138654641Y-68859113D01*
X138649008Y-68867293D01*
X138643755Y-68875743D01*
X138638894Y-68884452D01*
X138634437Y-68893406D01*
X138630397Y-68902595D01*
X138626786Y-68912004D01*
X138623616Y-68921623D01*
X138620900Y-68931438D01*
X138618651Y-68941437D01*
X138616879Y-68951608D01*
X138615599Y-68961939D01*
X138614822Y-68972417D01*
X138614560Y-68983030D01*
X137017031Y-68983030D01*
X137485821Y-68514238D01*
X137492072Y-68507989D01*
X137491944Y-68507861D01*
X137498880Y-68499946D01*
X137505357Y-68491777D01*
X137511374Y-68483370D01*
X137516931Y-68474744D01*
X137522028Y-68465916D01*
X137526666Y-68456902D01*
X137530843Y-68447722D01*
X137534561Y-68438392D01*
X137537818Y-68428929D01*
X137540616Y-68419351D01*
X137542954Y-68409676D01*
X137544832Y-68399921D01*
X137546250Y-68390103D01*
X137547209Y-68380240D01*
X137547707Y-68370350D01*
X137547746Y-68360449D01*
X137547325Y-68350556D01*
X137546444Y-68340687D01*
X137545103Y-68330860D01*
X137543302Y-68321094D01*
X137541041Y-68311404D01*
X137538321Y-68301808D01*
X137535140Y-68292325D01*
X137531500Y-68282971D01*
X137527400Y-68273764D01*
X137522839Y-68264722D01*
X137517819Y-68255861D01*
X137512340Y-68247200D01*
X137506400Y-68238755D01*
X137500000Y-68230545D01*
X137493141Y-68222586D01*
X137485821Y-68214896D01*
X137478132Y-68207577D01*
X137470173Y-68200717D01*
X137461963Y-68194318D01*
X137453518Y-68188378D01*
X137444857Y-68182899D01*
X137435996Y-68177879D01*
X137426954Y-68173319D01*
X137417747Y-68169218D01*
X137408393Y-68165578D01*
X137398910Y-68162398D01*
X137389314Y-68159677D01*
X137379625Y-68157416D01*
X137369858Y-68155616D01*
X137360031Y-68154275D01*
X137350162Y-68153394D01*
X137340269Y-68152972D01*
X137330368Y-68153011D01*
X137320478Y-68153510D01*
X137310615Y-68154468D01*
X137300797Y-68155886D01*
X137291042Y-68157764D01*
X137281367Y-68160102D01*
X137271789Y-68162900D01*
X137262327Y-68166158D01*
X137252996Y-68169876D01*
X137243816Y-68174053D01*
X137234803Y-68178690D01*
X137225974Y-68183788D01*
X137217348Y-68189345D01*
X137208942Y-68195362D01*
X137200773Y-68201839D01*
X137192858Y-68208775D01*
X137192731Y-68208647D01*
X137186478Y-68214896D01*
X136717686Y-68683690D01*
X136248892Y-68214898D01*
X136248802Y-68214805D01*
X136248756Y-68214759D01*
X136248709Y-68214713D01*
X136242648Y-68208647D01*
X136242631Y-68208663D01*
X136242614Y-68208679D01*
X136242598Y-68208695D01*
X136242581Y-68208711D01*
X136242518Y-68208775D01*
X136234603Y-68201839D01*
X136226434Y-68195362D01*
X136218027Y-68189345D01*
X136209401Y-68183788D01*
X136200572Y-68178691D01*
X136191559Y-68174054D01*
X136182379Y-68169876D01*
X136173048Y-68166159D01*
X136163585Y-68162901D01*
X136154008Y-68160103D01*
X136144333Y-68157765D01*
X136134577Y-68155887D01*
X136124760Y-68154469D01*
X136114897Y-68153510D01*
X136105006Y-68153012D01*
X136095106Y-68152973D01*
X136085212Y-68153395D01*
X136075344Y-68154276D01*
X136065517Y-68155617D01*
X136055750Y-68157417D01*
X136046060Y-68159678D01*
X136036465Y-68162399D01*
X136026982Y-68165579D01*
X136017628Y-68169220D01*
X136008421Y-68173320D01*
X135999379Y-68177880D01*
X135990518Y-68182900D01*
X135981857Y-68188380D01*
X135973412Y-68194319D01*
X135965202Y-68200719D01*
X135957243Y-68207579D01*
X135949553Y-68214898D01*
X135942234Y-68222588D01*
X135935374Y-68230546D01*
X135928975Y-68238757D01*
X135923035Y-68247201D01*
X135917556Y-68255862D01*
X135912536Y-68264723D01*
X135907976Y-68273766D01*
X135903875Y-68282972D01*
X135900235Y-68292326D01*
X135897055Y-68301809D01*
X135894334Y-68311405D01*
X135892073Y-68321094D01*
X135890273Y-68330861D01*
X135888932Y-68340688D01*
X135888051Y-68350557D01*
X135887629Y-68360450D01*
X134313011Y-68360450D01*
X134276573Y-68323670D01*
X134201389Y-68238737D01*
X134131033Y-68149630D01*
X134065712Y-68056555D01*
X134005632Y-67959718D01*
X133950999Y-67859327D01*
X133902020Y-67755588D01*
X133858901Y-67648708D01*
X133821850Y-67538892D01*
X133791072Y-67426348D01*
X133766774Y-67311281D01*
X133749163Y-67193899D01*
X133738444Y-67074408D01*
X133734826Y-66953014D01*
X133737437Y-66849842D01*
X133745188Y-66748018D01*
X133757952Y-66647669D01*
X133775602Y-66548922D01*
X133798012Y-66451902D01*
X133825055Y-66356737D01*
X133856606Y-66263552D01*
X133892539Y-66172473D01*
X133932725Y-66083628D01*
X133977041Y-65997142D01*
X134025358Y-65913142D01*
X134077550Y-65831754D01*
X134133492Y-65753105D01*
X134193057Y-65677321D01*
X134256119Y-65604528D01*
X134322551Y-65534852D01*
X134392226Y-65468420D01*
X134465019Y-65405359D01*
X134540804Y-65345794D01*
X134619453Y-65289852D01*
X134700841Y-65237659D01*
X134784841Y-65189342D01*
X134871327Y-65145027D01*
X134960172Y-65104840D01*
X135051250Y-65068908D01*
X135144435Y-65037357D01*
X135239600Y-65010313D01*
X135336620Y-64987903D01*
X135435367Y-64970253D01*
X135535716Y-64957490D01*
X135637539Y-64949739D01*
X135740712Y-64947127D01*
X135834269Y-64949274D01*
X135926729Y-64955651D01*
X136017996Y-64966165D01*
X136107977Y-64980721D01*
X136196579Y-64999226D01*
X136283706Y-65021585D01*
X136369264Y-65047705D01*
X136453161Y-65077490D01*
X136535301Y-65110849D01*
X136615591Y-65147685D01*
X136693937Y-65187905D01*
X136770244Y-65231416D01*
X136844418Y-65278123D01*
X136916366Y-65327932D01*
X136985994Y-65380749D01*
X137053207Y-65436479D01*
X137117911Y-65495030D01*
X137180012Y-65556307D01*
X137239417Y-65620215D01*
X137296031Y-65686661D01*
X137349760Y-65755551D01*
X137400510Y-65826791D01*
X137448188Y-65900286D01*
X137492698Y-65975943D01*
X137533947Y-66053667D01*
X137571842Y-66133365D01*
X137606287Y-66214943D01*
X137637189Y-66298305D01*
X137664454Y-66383359D01*
X137687987Y-66470011D01*
X137707696Y-66558166D01*
X137723485Y-66647730D01*
X137783442Y-66641655D01*
X137843628Y-66636372D01*
X137904039Y-66631888D01*
X137964670Y-66628207D01*
X138025513Y-66625335D01*
X138086566Y-66623278D01*
X138147821Y-66622039D01*
X138209275Y-66621625D01*
X138209277Y-66621625D01*
X138275179Y-66622101D01*
X138340852Y-66623525D01*
X138406291Y-66625891D01*
X138471489Y-66629192D01*
X138536438Y-66633421D01*
X138601134Y-66638572D01*
X138665568Y-66644638D01*
X138729735Y-66651613D01*
X138746515Y-66563270D01*
X138767116Y-66476336D01*
X138791447Y-66390904D01*
X138819415Y-66307064D01*
X138850931Y-66224909D01*
X138885902Y-66144529D01*
X138924236Y-66066016D01*
X138965843Y-65989462D01*
X139010630Y-65914958D01*
X139058507Y-65842595D01*
X139109382Y-65772466D01*
X139163163Y-65704661D01*
X139219759Y-65639271D01*
X139279079Y-65576389D01*
X139341030Y-65516107D01*
X139405522Y-65458514D01*
X139472464Y-65403703D01*
X139541762Y-65351765D01*
X139613327Y-65302793D01*
X139687066Y-65256876D01*
X139762889Y-65214107D01*
X139840703Y-65174577D01*
X139920418Y-65138378D01*
X140001941Y-65105601D01*
X140085182Y-65076337D01*
X140170048Y-65050679D01*
X140256449Y-65028717D01*
X140344292Y-65010543D01*
X140433487Y-64996248D01*
X140523942Y-64985925D01*
X140615566Y-64979664D01*
X140708266Y-64977556D01*
X140811438Y-64980168D01*
X140913262Y-64987919D01*
X141013611Y-65000682D01*
X141112358Y-65018332D01*
X141209378Y-65040742D01*
X141304543Y-65067786D01*
X141397728Y-65099337D01*
X141488806Y-65135269D01*
X141577652Y-65175456D01*
X141664137Y-65219771D01*
X141748137Y-65268088D01*
X141829525Y-65320281D01*
X141908174Y-65376223D01*
X141983959Y-65435787D01*
X142056752Y-65498849D01*
X142126428Y-65565281D01*
X142192860Y-65634956D01*
X142255921Y-65707750D01*
X142315486Y-65783534D01*
X142371428Y-65862183D01*
X142423621Y-65943571D01*
X142471938Y-66027571D01*
X142516253Y-66114057D01*
X142556440Y-66202902D01*
X142592372Y-66293980D01*
X142623923Y-66387166D01*
X142650967Y-66482331D01*
X142673377Y-66579351D01*
X142691027Y-66678098D01*
X142703790Y-66778447D01*
X142711541Y-66880271D01*
X142714153Y-66983443D01*
X142714152Y-66983443D01*
X142714152Y-66983442D01*
X142710502Y-67105358D01*
X142699692Y-67225354D01*
X142681930Y-67343221D01*
X142657427Y-67458750D01*
X142626391Y-67571731D01*
X142589031Y-67681955D01*
X142545557Y-67789212D01*
X142496177Y-67893295D01*
X142441102Y-67993993D01*
X142380540Y-68091098D01*
X142314701Y-68184400D01*
X142243793Y-68273689D01*
X142168026Y-68358758D01*
X142087609Y-68439396D01*
X142002752Y-68515394D01*
X141913663Y-68586543D01*
X141984137Y-68693578D01*
X142051603Y-68802718D01*
X142115999Y-68913902D01*
X142153423Y-68983030D01*
X142177266Y-69027072D01*
X142235347Y-69142169D01*
X142290180Y-69259133D01*
X142341708Y-69377905D01*
X142389871Y-69498427D01*
X142434610Y-69620638D01*
X142475865Y-69744479D01*
X142513577Y-69869892D01*
X142547688Y-69996817D01*
X142578137Y-70125195D01*
X142604867Y-70254967D01*
X142627816Y-70386074D01*
X142646927Y-70518455D01*
X142782091Y-70337236D01*
X142910037Y-70150508D01*
X143030559Y-69958479D01*
X143143449Y-69761356D01*
X143248500Y-69559347D01*
X143345503Y-69352659D01*
X143434253Y-69141499D01*
X143514541Y-68926076D01*
X143586161Y-68706595D01*
X143648904Y-68483265D01*
X143702563Y-68256293D01*
X143746931Y-68025887D01*
X143781800Y-67792253D01*
X143806964Y-67555599D01*
X143822214Y-67316133D01*
X143827344Y-67074062D01*
X143820029Y-66785098D01*
X143798321Y-66499911D01*
X143762573Y-66218855D01*
X143713139Y-65942284D01*
X143650373Y-65670553D01*
X143574629Y-65404014D01*
X143486261Y-65143022D01*
X143385623Y-64887931D01*
X143273068Y-64639094D01*
X143148951Y-64396865D01*
X143013625Y-64161599D01*
X142867444Y-63933649D01*
X142710762Y-63713369D01*
X142543933Y-63501113D01*
X142367311Y-63297234D01*
X142181249Y-63102087D01*
X141986102Y-62916026D01*
X141782224Y-62739404D01*
X141569967Y-62572575D01*
X141349687Y-62415893D01*
X141121737Y-62269712D01*
X140886471Y-62134386D01*
X140644242Y-62010269D01*
X140395406Y-61897714D01*
X140140314Y-61797076D01*
X139879322Y-61708708D01*
X139612784Y-61632964D01*
X139341052Y-61570198D01*
X139064482Y-61520765D01*
X138783426Y-61485017D01*
X138498239Y-61463308D01*
X138209275Y-61455994D01*
X137920311Y-61463308D01*
X137635124Y-61485017D01*
X137354068Y-61520765D01*
X137077498Y-61570198D01*
X136805766Y-61632964D01*
X136539227Y-61708708D01*
X136278235Y-61797076D01*
X136023144Y-61897714D01*
X135774307Y-62010269D01*
X135532079Y-62134386D01*
X135296813Y-62269712D01*
X135068862Y-62415893D01*
X134848582Y-62572575D01*
X134636326Y-62739404D01*
X134432447Y-62916026D01*
X134237300Y-63102087D01*
X134051239Y-63297234D01*
X133874617Y-63501113D01*
X133707788Y-63713369D01*
X133551106Y-63933649D01*
X133404925Y-64161599D01*
X133269599Y-64396865D01*
X133145482Y-64639094D01*
X133032927Y-64887931D01*
X132932289Y-65143022D01*
X132843921Y-65404014D01*
X132768177Y-65670553D01*
X132705411Y-65942284D01*
X132655977Y-66218855D01*
X132620229Y-66499911D01*
X132598521Y-66785098D01*
X132591206Y-67074062D01*
X131456891Y-67074062D01*
X131456893Y-63054521D01*
X138209273Y-59156033D01*
X144961663Y-63054524D01*
X144961661Y-67074062D01*
X144961660Y-70851511D01*
G37*
%TO.C,U2*%
D10*
X127572500Y-103275000D02*
X148652500Y-103275000D01*
X148652500Y-30125000D01*
X127572500Y-30125000D01*
X127572500Y-103275000D01*
%TO.C,U1*%
X147612500Y-104300000D02*
X128612500Y-104300000D01*
X128612500Y-28800000D01*
X147612500Y-28800000D01*
X147612500Y-104300000D01*
%TD*%
M02*
