M48
; DRILL file {KiCad 9.0.4} date 2025-09-26T22:16:18-0500
; FORMAT={-:-/ absolute / metric / decimal}
; #@! TF.CreationDate,2025-09-26T22:16:18-05:00
; #@! TF.GenerationSoftware,Kicad,Pcbnew,9.0.4
; #@! TF.FileFunction,Plated,1,2,PTH
FMAT,2
METRIC
; #@! TA.AperFunction,Plated,PTH,ViaDrill
T1C0.300
; #@! TA.AperFunction,Plated,PTH,ComponentDrill
T2C0.800
; #@! TA.AperFunction,Plated,PTH,ComponentDrill
T3C2.200
; #@! TA.AperFunction,Plated,PTH,ComponentDrill
T4C3.000
%
G90
G05
T1
X31.75Y-30.162
X42.862Y-46.038
X42.862Y-65.087
X42.862Y-84.138
X42.862Y-103.188
X50.8Y-30.762
X61.912Y-46.038
X61.912Y-65.087
X61.912Y-84.138
X61.912Y-103.188
X69.894Y-41.275
X80.962Y-46.038
X80.962Y-65.087
X80.962Y-84.138
X80.962Y-103.188
X88.9Y-42.862
X100.012Y-46.038
X100.012Y-65.087
X100.012Y-84.138
X100.012Y-103.188
X107.95Y-44.45
X119.062Y-46.038
X119.062Y-65.087
X119.062Y-84.138
X119.062Y-103.188
X123.825Y-46.038
X125.0Y-103.787
X125.412Y-30.162
X125.412Y-31.75
X125.412Y-38.1
X125.412Y-41.275
X125.412Y-42.862
X130.137Y-81.001
X130.493Y-94.5
X133.032Y-95.5
X134.5Y-93.5
X135.572Y-92.0
X138.112Y-68.263
X138.951Y-92.0
X139.552Y-93.5
X139.7Y-71.438
X142.0Y-95.5
X142.875Y-41.275
X144.463Y-41.275
X144.463Y-68.263
X144.463Y-71.438
X144.463Y-76.2
X144.5Y-94.5
X147.0Y-103.787
X150.812Y-50.8
X150.812Y-53.975
X150.812Y-58.737
X150.812Y-63.5
X150.812Y-66.675
X153.987Y-52.387
X166.688Y-46.038
X166.688Y-65.087
X166.688Y-84.138
X166.688Y-103.188
X174.669Y-53.975
X185.737Y-46.038
X185.737Y-65.087
X185.737Y-84.138
X185.737Y-103.188
X193.675Y-58.737
X204.787Y-46.038
X204.787Y-65.087
X204.787Y-84.138
X204.787Y-103.188
X212.725Y-63.5
X223.837Y-46.038
X223.837Y-65.087
X223.837Y-84.138
X223.837Y-103.188
X231.775Y-66.675
X242.887Y-46.038
X242.887Y-65.087
X242.887Y-84.138
X242.887Y-103.188
T2
X129.213Y-101.6
X130.493Y-99.0
X131.752Y-101.6
X133.032Y-99.0
X134.292Y-101.6
X135.572Y-99.0
X136.832Y-101.6
X138.112Y-99.0
X139.373Y-101.6
X140.653Y-99.0
X141.912Y-101.6
X143.192Y-99.0
X144.452Y-101.6
X145.732Y-99.0
X146.993Y-101.6
T3
X47.625Y-47.625
X47.625Y-85.725
X104.775Y-66.675
X171.45Y-66.675
X228.6Y-47.625
X228.6Y-85.725
T4
X35.56Y-33.02
X35.56Y-52.07
X35.56Y-71.12
X35.56Y-90.17
X41.91Y-35.56
X41.91Y-54.61
X41.91Y-73.66
X41.91Y-92.71
X54.61Y-33.02
X54.61Y-52.07
X54.61Y-71.12
X54.61Y-90.17
X60.96Y-35.56
X60.96Y-54.61
X60.96Y-73.66
X60.96Y-92.71
X73.66Y-33.02
X73.66Y-52.07
X73.66Y-71.12
X73.66Y-90.17
X80.01Y-35.56
X80.01Y-54.61
X80.01Y-73.66
X80.01Y-92.71
X92.71Y-33.02
X92.71Y-52.07
X92.71Y-71.12
X92.71Y-90.17
X99.06Y-35.56
X99.06Y-54.61
X99.06Y-73.66
X99.06Y-92.71
X111.76Y-33.02
X111.76Y-52.07
X111.76Y-71.12
X111.76Y-90.17
X118.11Y-35.56
X118.11Y-54.61
X118.11Y-73.66
X118.11Y-92.71
X159.385Y-33.02
X159.385Y-52.07
X159.385Y-71.12
X159.385Y-90.17
X165.735Y-35.56
X165.735Y-54.61
X165.735Y-73.66
X165.735Y-92.71
X178.435Y-33.02
X178.435Y-52.07
X178.435Y-71.12
X178.435Y-90.17
X184.785Y-35.56
X184.785Y-54.61
X184.785Y-73.66
X184.785Y-92.71
X197.485Y-33.02
X197.485Y-52.07
X197.485Y-71.12
X197.485Y-90.17
X203.835Y-35.56
X203.835Y-54.61
X203.835Y-73.66
X203.835Y-92.71
X216.535Y-33.02
X216.535Y-52.07
X216.535Y-71.12
X216.535Y-90.17
X222.885Y-35.56
X222.885Y-54.61
X222.885Y-73.66
X222.885Y-92.71
X235.585Y-33.02
X235.585Y-52.07
X235.585Y-71.12
X235.585Y-90.17
X241.935Y-35.56
X241.935Y-54.61
X241.935Y-73.66
X241.935Y-92.71
M30
