%TF.GenerationSoftware,KiCad,Pcbnew,9.0.4*%
%TF.CreationDate,2025-09-26T22:16:16-05:00*%
%TF.ProjectId,loongcat40,6c6f6f6e-6763-4617-9434-302e6b696361,rev?*%
%TF.SameCoordinates,Original*%
%TF.FileFunction,Paste,Top*%
%TF.FilePolarity,Positive*%
%FSLAX46Y46*%
G04 Gerber Fmt 4.6, Leading zero omitted, Abs format (unit mm)*
G04 Created by KiCad (PCBNEW 9.0.4) date 2025-09-26 22:16:16*
%MOMM*%
%LPD*%
G01*
G04 APERTURE LIST*
G04 Aperture macros list*
%AMRoundRect*
0 Rectangle with rounded corners*
0 $1 Rounding radius*
0 $2 $3 $4 $5 $6 $7 $8 $9 X,Y pos of 4 corners*
0 Add a 4 corners polygon primitive as box body*
4,1,4,$2,$3,$4,$5,$6,$7,$8,$9,$2,$3,0*
0 Add four circle primitives for the rounded corners*
1,1,$1+$1,$2,$3*
1,1,$1+$1,$4,$5*
1,1,$1+$1,$6,$7*
1,1,$1+$1,$8,$9*
0 Add four rect primitives between the rounded corners*
20,1,$1+$1,$2,$3,$4,$5,0*
20,1,$1+$1,$4,$5,$6,$7,0*
20,1,$1+$1,$6,$7,$8,$9,0*
20,1,$1+$1,$8,$9,$2,$3,0*%
G04 Aperture macros list end*
%ADD10RoundRect,0.250000X-1.025000X-1.000000X1.025000X-1.000000X1.025000X1.000000X-1.025000X1.000000X0*%
%ADD11R,3.800000X2.200000*%
%ADD12R,2.200000X3.800000*%
%ADD13RoundRect,0.225000X0.375000X-0.225000X0.375000X0.225000X-0.375000X0.225000X-0.375000X-0.225000X0*%
G04 APERTURE END LIST*
D10*
%TO.C,SW37*%
X188335000Y-92710000D03*
X174885000Y-90170000D03*
%TD*%
%TO.C,SW40*%
X245485000Y-92710000D03*
X232035000Y-90170000D03*
%TD*%
%TO.C,SW39*%
X226435000Y-92710000D03*
X212985000Y-90170000D03*
%TD*%
%TO.C,SW38*%
X207385000Y-92710000D03*
X193935000Y-90170000D03*
%TD*%
%TO.C,SW36*%
X169285000Y-92710000D03*
X155835000Y-90170000D03*
%TD*%
%TO.C,SW35*%
X121660000Y-92710000D03*
X108210000Y-90170000D03*
%TD*%
%TO.C,SW34*%
X102610000Y-92710000D03*
X89160000Y-90170000D03*
%TD*%
%TO.C,SW33*%
X83560000Y-92710000D03*
X70110000Y-90170000D03*
%TD*%
%TO.C,SW32*%
X64510000Y-92710000D03*
X51060000Y-90170000D03*
%TD*%
%TO.C,SW31*%
X45460000Y-92710000D03*
X32010000Y-90170000D03*
%TD*%
%TO.C,SW30*%
X245485000Y-73660000D03*
X232035000Y-71120000D03*
%TD*%
%TO.C,SW29*%
X226435000Y-73660000D03*
X212985000Y-71120000D03*
%TD*%
%TO.C,SW28*%
X207385000Y-73660000D03*
X193935000Y-71120000D03*
%TD*%
%TO.C,SW27*%
X188335000Y-73660000D03*
X174885000Y-71120000D03*
%TD*%
%TO.C,SW26*%
X169285000Y-73660000D03*
X155835000Y-71120000D03*
%TD*%
%TO.C,SW25*%
X121660000Y-73660000D03*
X108210000Y-71120000D03*
%TD*%
%TO.C,SW24*%
X102610000Y-73660000D03*
X89160000Y-71120000D03*
%TD*%
%TO.C,SW23*%
X83560000Y-73660000D03*
X70110000Y-71120000D03*
%TD*%
%TO.C,SW22*%
X64510000Y-73660000D03*
X51060000Y-71120000D03*
%TD*%
%TO.C,SW21*%
X45460000Y-73660000D03*
X32010000Y-71120000D03*
%TD*%
%TO.C,SW20*%
X245485000Y-54610000D03*
X232035000Y-52070000D03*
%TD*%
%TO.C,SW19*%
X226435000Y-54610000D03*
X212985000Y-52070000D03*
%TD*%
%TO.C,SW18*%
X207385000Y-54610000D03*
X193935000Y-52070000D03*
%TD*%
%TO.C,SW17*%
X188335000Y-54610000D03*
X174885000Y-52070000D03*
%TD*%
%TO.C,SW16*%
X169285000Y-54610000D03*
X155835000Y-52070000D03*
%TD*%
%TO.C,SW15*%
X121660000Y-54610000D03*
X108210000Y-52070000D03*
%TD*%
%TO.C,SW14*%
X102610000Y-54610000D03*
X89160000Y-52070000D03*
%TD*%
%TO.C,SW13*%
X83560000Y-54610000D03*
X70110000Y-52070000D03*
%TD*%
%TO.C,SW12*%
X64510000Y-54610000D03*
X51060000Y-52070000D03*
%TD*%
%TO.C,SW11*%
X45460000Y-54610000D03*
X32010000Y-52070000D03*
%TD*%
%TO.C,SW10*%
X245485000Y-35560000D03*
X232035000Y-33020000D03*
%TD*%
%TO.C,SW9*%
X226435000Y-35560000D03*
X212985000Y-33020000D03*
%TD*%
%TO.C,SW8*%
X207385000Y-35560000D03*
X193935000Y-33020000D03*
%TD*%
%TO.C,SW7*%
X188335000Y-35560000D03*
X174885000Y-33020000D03*
%TD*%
%TO.C,SW6*%
X169285000Y-35560000D03*
X155835000Y-33020000D03*
%TD*%
%TO.C,SW5*%
X121660000Y-35560000D03*
X108210000Y-33020000D03*
%TD*%
%TO.C,SW4*%
X102610000Y-35560000D03*
X89160000Y-33020000D03*
%TD*%
%TO.C,SW3*%
X83560000Y-35560000D03*
X70110000Y-33020000D03*
%TD*%
%TO.C,SW2*%
X64510000Y-35560000D03*
X51060000Y-33020000D03*
%TD*%
%TO.C,SW1*%
X45460000Y-35560000D03*
X32010000Y-33020000D03*
%TD*%
D11*
%TO.C,A2*%
X128422500Y-30177500D03*
X128422500Y-32717500D03*
X128422500Y-35257500D03*
X128422500Y-37797500D03*
X128422500Y-40337500D03*
X128422500Y-42877500D03*
X128422500Y-45417500D03*
X128422500Y-47957500D03*
X128422500Y-50497500D03*
X128422500Y-53037500D03*
X128422500Y-55577500D03*
X128422500Y-58117500D03*
X128422500Y-60657500D03*
X128422500Y-63197500D03*
X128422500Y-65737500D03*
X128422500Y-68277500D03*
X128422500Y-70817500D03*
X128422500Y-73357500D03*
X128422500Y-75897500D03*
X128422500Y-78437500D03*
D12*
X135572500Y-79007500D03*
X138112500Y-79007500D03*
X140652500Y-79007500D03*
D11*
X147802500Y-30177500D03*
X147802500Y-32717500D03*
X147802500Y-35257500D03*
X147802500Y-37797500D03*
X147802500Y-40337500D03*
X147802500Y-42877500D03*
X147802500Y-45417500D03*
X147802500Y-47957500D03*
X147802500Y-50497500D03*
X147802500Y-53037500D03*
X147802500Y-55577500D03*
X147802500Y-58117500D03*
X147802500Y-60657500D03*
X147802500Y-63197500D03*
X147802500Y-65737500D03*
X147802500Y-68277500D03*
X147802500Y-70817500D03*
X147802500Y-73357500D03*
X147802500Y-75897500D03*
X147802500Y-78437500D03*
%TD*%
D13*
%TO.C,D14*%
X100330000Y-62830000D03*
X100330000Y-59530000D03*
%TD*%
%TO.C,D12*%
X62230000Y-62830000D03*
X62230000Y-59530000D03*
%TD*%
%TO.C,D4*%
X100330000Y-43780000D03*
X100330000Y-40480000D03*
%TD*%
%TO.C,D2*%
X62230000Y-43780000D03*
X62230000Y-40480000D03*
%TD*%
%TO.C,D15*%
X119380000Y-62830000D03*
X119380000Y-59530000D03*
%TD*%
%TO.C,D5*%
X119380000Y-43780000D03*
X119380000Y-40480000D03*
%TD*%
%TO.C,D27*%
X186055000Y-81880000D03*
X186055000Y-78580000D03*
%TD*%
%TO.C,D17*%
X186055000Y-62830000D03*
X186055000Y-59530000D03*
%TD*%
%TO.C,D23*%
X81280000Y-81880000D03*
X81280000Y-78580000D03*
%TD*%
%TO.C,D1*%
X43180000Y-43780000D03*
X43180000Y-40480000D03*
%TD*%
%TO.C,D25*%
X119380000Y-81880000D03*
X119380000Y-78580000D03*
%TD*%
%TO.C,D33*%
X81280000Y-100930000D03*
X81280000Y-97630000D03*
%TD*%
%TO.C,D36*%
X167005000Y-100930000D03*
X167005000Y-97630000D03*
%TD*%
%TO.C,D18*%
X205105000Y-62830000D03*
X205105000Y-59530000D03*
%TD*%
%TO.C,D30*%
X243205000Y-81880000D03*
X243205000Y-78580000D03*
%TD*%
%TO.C,D31*%
X43180000Y-100930000D03*
X43180000Y-97630000D03*
%TD*%
%TO.C,D20*%
X243205000Y-62830000D03*
X243205000Y-59530000D03*
%TD*%
%TO.C,D32*%
X62230000Y-100930000D03*
X62230000Y-97630000D03*
%TD*%
%TO.C,D28*%
X205105000Y-81880000D03*
X205105000Y-78580000D03*
%TD*%
%TO.C,D10*%
X243205000Y-43780000D03*
X243205000Y-40480000D03*
%TD*%
%TO.C,D24*%
X100330000Y-81880000D03*
X100330000Y-78580000D03*
%TD*%
%TO.C,D26*%
X167005000Y-81880000D03*
X167005000Y-78580000D03*
%TD*%
%TO.C,D29*%
X224155000Y-81880000D03*
X224155000Y-78580000D03*
%TD*%
%TO.C,D35*%
X119380000Y-100930000D03*
X119380000Y-97630000D03*
%TD*%
%TO.C,D21*%
X43180000Y-81880000D03*
X43180000Y-78580000D03*
%TD*%
%TO.C,D34*%
X100330000Y-100930000D03*
X100330000Y-97630000D03*
%TD*%
%TO.C,D37*%
X186055000Y-100930000D03*
X186055000Y-97630000D03*
%TD*%
%TO.C,D40*%
X243205000Y-100930000D03*
X243205000Y-97630000D03*
%TD*%
%TO.C,D13*%
X81280000Y-62830000D03*
X81280000Y-59530000D03*
%TD*%
%TO.C,D16*%
X167005000Y-62830000D03*
X167005000Y-59530000D03*
%TD*%
%TO.C,D9*%
X224155000Y-43780000D03*
X224155000Y-40480000D03*
%TD*%
%TO.C,D6*%
X167005000Y-43780000D03*
X167005000Y-40480000D03*
%TD*%
%TO.C,D3*%
X81280000Y-43780000D03*
X81280000Y-40480000D03*
%TD*%
%TO.C,D19*%
X224155000Y-62830000D03*
X224155000Y-59530000D03*
%TD*%
%TO.C,D11*%
X43180000Y-62830000D03*
X43180000Y-59530000D03*
%TD*%
%TO.C,D22*%
X62230000Y-81880000D03*
X62230000Y-78580000D03*
%TD*%
%TO.C,D38*%
X205105000Y-100930000D03*
X205105000Y-97630000D03*
%TD*%
%TO.C,D8*%
X205105000Y-43780000D03*
X205105000Y-40480000D03*
%TD*%
%TO.C,D7*%
X186055000Y-43780000D03*
X186055000Y-40480000D03*
%TD*%
%TO.C,D39*%
X224155000Y-100930000D03*
X224155000Y-97630000D03*
%TD*%
M02*
