M48
; DRILL file {KiCad 9.0.4} date 2025-09-26T22:16:18-0500
; FORMAT={-:-/ absolute / metric / decimal}
; #@! TF.CreationDate,2025-09-26T22:16:18-05:00
; #@! TF.GenerationSoftware,Kicad,Pcbnew,9.0.4
; #@! TF.FileFunction,NonPlated,1,2,NPTH
FMAT,2
METRIC
; #@! TA.AperFunction,NonPlated,NPTH,ComponentDrill
T1C1.750
; #@! TA.AperFunction,NonPlated,NPTH,ComponentDrill
T2C1.850
; #@! TA.AperFunction,NonPlated,NPTH,ComponentDrill
T3C2.200
; #@! TA.AperFunction,NonPlated,NPTH,ComponentDrill
T4C3.988
%
G90
G05
T1
X33.02Y-38.1
X33.02Y-57.15
X33.02Y-76.2
X33.02Y-95.25
X43.18Y-38.1
X43.18Y-57.15
X43.18Y-76.2
X43.18Y-95.25
X52.07Y-38.1
X52.07Y-57.15
X52.07Y-76.2
X52.07Y-95.25
X62.23Y-38.1
X62.23Y-57.15
X62.23Y-76.2
X62.23Y-95.25
X71.12Y-38.1
X71.12Y-57.15
X71.12Y-76.2
X71.12Y-95.25
X81.28Y-38.1
X81.28Y-57.15
X81.28Y-76.2
X81.28Y-95.25
X90.17Y-38.1
X90.17Y-57.15
X90.17Y-76.2
X90.17Y-95.25
X100.33Y-38.1
X100.33Y-57.15
X100.33Y-76.2
X100.33Y-95.25
X109.22Y-38.1
X109.22Y-57.15
X109.22Y-76.2
X109.22Y-95.25
X119.38Y-38.1
X119.38Y-57.15
X119.38Y-76.2
X119.38Y-95.25
X156.845Y-38.1
X156.845Y-57.15
X156.845Y-76.2
X156.845Y-95.25
X167.005Y-38.1
X167.005Y-57.15
X167.005Y-76.2
X167.005Y-95.25
X175.895Y-38.1
X175.895Y-57.15
X175.895Y-76.2
X175.895Y-95.25
X186.055Y-38.1
X186.055Y-57.15
X186.055Y-76.2
X186.055Y-95.25
X194.945Y-38.1
X194.945Y-57.15
X194.945Y-76.2
X194.945Y-95.25
X205.105Y-38.1
X205.105Y-57.15
X205.105Y-76.2
X205.105Y-95.25
X213.995Y-38.1
X213.995Y-57.15
X213.995Y-76.2
X213.995Y-95.25
X224.155Y-38.1
X224.155Y-57.15
X224.155Y-76.2
X224.155Y-95.25
X233.045Y-38.1
X233.045Y-57.15
X233.045Y-76.2
X233.045Y-95.25
X243.205Y-38.1
X243.205Y-57.15
X243.205Y-76.2
X243.205Y-95.25
T2
X135.688Y-33.337
X140.537Y-33.337
T3
X135.387Y-30.307
X140.838Y-30.307
T4
X38.1Y-38.1
X38.1Y-57.15
X38.1Y-76.2
X38.1Y-95.25
X57.15Y-38.1
X57.15Y-57.15
X57.15Y-76.2
X57.15Y-95.25
X76.2Y-38.1
X76.2Y-57.15
X76.2Y-76.2
X76.2Y-95.25
X95.25Y-38.1
X95.25Y-57.15
X95.25Y-76.2
X95.25Y-95.25
X114.3Y-38.1
X114.3Y-57.15
X114.3Y-76.2
X114.3Y-95.25
X161.925Y-38.1
X161.925Y-57.15
X161.925Y-76.2
X161.925Y-95.25
X180.975Y-38.1
X180.975Y-57.15
X180.975Y-76.2
X180.975Y-95.25
X200.025Y-38.1
X200.025Y-57.15
X200.025Y-76.2
X200.025Y-95.25
X219.075Y-38.1
X219.075Y-57.15
X219.075Y-76.2
X219.075Y-95.25
X238.125Y-38.1
X238.125Y-57.15
X238.125Y-76.2
X238.125Y-95.25
M30
